<?xml version="1.0" standalone="no"?>
<!DOCTYPE svg PUBLIC "-//W3C//DTD SVG 20010904//EN"
 "http://www.w3.org/TR/2001/REC-SVG-20010904/DTD/svg10.dtd">
<svg version="1.0" xmlns="http://www.w3.org/2000/svg"
 width="242.000000pt" height="242.000000pt" viewBox="0 0 242.000000 242.000000"
 preserveAspectRatio="xMidYMid meet">
<metadata>
Created by potrace 1.11, written by Peter Selinger 2001-2013
</metadata>
<g transform="translate(0.000000,242.000000) scale(0.100000,-0.100000)"
fill="#000000" stroke="none">
<path d="M1340 2361 c0 -5 9 -11 20 -14 11 -3 20 -13 20 -22 0 -9 -4 -14 -9
-11 -18 12 -231 19 -231 8 0 -6 23 -10 55 -10 58 1 71 -4 61 -21 -4 -5 -22 -7
-43 -4 -25 4 -34 3 -29 -5 12 -19 -17 -26 -31 -7 -7 11 -13 14 -13 7 0 -16 40
-41 56 -35 8 3 14 13 14 22 0 12 5 10 21 -9 11 -14 18 -19 14 -12 -5 9 1 15
14 19 16 4 20 11 16 24 -5 14 -1 19 14 19 33 0 29 -48 -4 -56 -14 -3 -25 -11
-25 -16 0 -6 9 -8 21 -5 12 3 22 0 26 -9 10 -26 19 -14 22 28 3 52 6 57 31 51
11 -3 18 -9 15 -13 -11 -18 -16 -80 -6 -80 6 0 14 18 17 40 7 45 14 53 33 41
10 -6 10 -17 1 -51 -12 -43 -6 -66 10 -40 6 8 10 23 11 33 1 9 2 23 3 30 1 17
54 17 95 0 25 -11 31 -17 21 -23 -7 -4 -24 -4 -36 1 -17 6 -28 4 -38 -6 -14
-15 -11 -51 5 -61 5 -3 6 2 3 11 -10 25 14 47 38 34 15 -8 17 -14 9 -22 -13
-13 -15 -37 -2 -37 5 0 14 15 21 33 21 52 28 57 56 45 13 -6 24 -14 24 -18 0
-12 -26 -30 -33 -23 -11 10 -8 -10 3 -27 9 -13 11 -13 19 0 24 39 36 49 50 41
11 -7 10 -13 -4 -35 -10 -14 -14 -26 -9 -26 4 0 0 -6 -11 -13 -12 -10 -14 -16
-7 -21 10 -6 44 37 55 69 2 6 14 4 30 -4 25 -13 26 -16 11 -32 -9 -10 -21 -16
-25 -13 -5 3 -9 -5 -9 -16 0 -15 5 -20 14 -17 19 8 38 -16 30 -37 -10 -26 6
-18 41 21 32 36 33 37 59 20 33 -22 33 -35 -1 -39 -23 -2 -28 -7 -25 -28 1
-13 9 -28 17 -33 8 -4 12 -14 9 -22 -9 -22 10 -18 32 6 10 12 32 27 48 34 l28
12 -62 52 c-34 29 -87 66 -116 83 -61 34 -71 45 -55 61 8 8 11 8 11 -2 0 -7 5
-9 10 -6 15 9 2 25 -21 25 -10 0 -19 -7 -19 -15 0 -17 -13 -19 -38 -5 -9 5
-45 19 -79 31 -35 12 -60 25 -58 29 7 12 -44 50 -67 50 -11 0 -22 -8 -25 -18
-7 -28 -46 -16 -62 19 -12 27 -41 41 -41 20z m458 -240 c-7 -9 -13 -17 -14
-19 -3 -7 -34 11 -34 20 0 19 34 37 48 26 10 -8 10 -14 0 -27z m115 -63 c7
-22 -32 -49 -54 -38 -29 16 -36 34 -10 27 14 -3 24 0 28 9 6 17 30 18 36 2z"/>
<path d="M979 2304 c-36 -7 -86 -19 -112 -28 -33 -11 -54 -13 -79 -6 -45 14
-59 11 -24 -4 l28 -13 -76 -36 c-119 -56 -280 -176 -262 -194 3 -4 15 4 26 17
14 16 24 20 31 13 7 -7 5 -14 -6 -23 -8 -7 -15 -19 -15 -26 0 -17 46 -37 69
-31 11 3 9 5 -5 6 -31 2 -45 22 -30 43 12 17 14 17 31 -2 10 -11 25 -20 34
-20 10 0 0 15 -28 39 -42 38 -43 39 -21 51 24 13 50 -1 50 -26 0 -8 9 -14 20
-14 11 0 20 6 20 14 0 17 27 29 35 16 4 -6 14 -10 23 -10 11 0 4 12 -23 40
-38 39 -38 40 -19 55 23 17 34 18 54 5 12 -8 12 -12 2 -18 -18 -12 3 -28 48
-36 l35 -6 -30 14 -30 14 29 11 c20 8 32 9 40 1 5 -5 17 -10 26 -10 9 0 11 3
5 8 -6 4 -22 22 -34 41 -20 27 -21 35 -10 42 24 15 38 10 45 -16 3 -14 10 -25
15 -25 5 0 9 -7 9 -15 0 -8 5 -15 10 -15 16 0 12 20 -10 56 l-21 32 22 7 c23
8 42 -11 34 -32 -2 -7 4 -17 15 -23 10 -5 20 -6 22 -1 2 4 13 12 26 15 16 6
22 3 22 -8 0 -9 5 -16 10 -16 13 0 13 12 -2 47 -18 46 -18 53 7 53 19 0 24 -7
30 -40 4 -26 12 -40 22 -40 11 0 13 5 8 18 -18 41 -17 70 2 74 10 2 14 6 8 9
-5 3 -40 0 -76 -7z m-35 -40 c10 -26 7 -34 -13 -34 -20 0 -35 25 -25 41 9 14
31 10 38 -7z m-174 -85 c0 -16 -34 -19 -49 -4 -14 13 -13 16 4 29 18 13 21 13
33 -1 6 -9 12 -20 12 -24z m-139 -88 c-16 -10 -51 7 -51 26 0 20 24 21 45 2
17 -16 18 -21 6 -28z"/>
<path d="M1182 2098 c-7 -7 -12 -23 -12 -36 0 -21 -4 -23 -37 -20 -25 2 -38 8
-39 18 -2 33 -4 40 -13 40 -30 0 -19 -87 13 -101 18 -7 36 -18 66 -37 6 -4 10
-195 4 -204 -7 -12 -133 38 -159 62 -28 27 -20 57 17 62 13 2 32 17 43 35 11
18 26 32 34 33 8 0 11 3 7 7 -12 13 -116 4 -151 -13 -38 -18 -60 -61 -51 -99
8 -31 87 -90 144 -107 23 -7 41 -17 38 -23 -2 -5 -7 -18 -11 -27 -5 -13 2 -27
25 -48 18 -16 27 -30 22 -30 -6 0 -13 -9 -17 -19 -3 -10 -15 -21 -25 -24 -11
-3 -20 -11 -20 -19 0 -8 -20 -19 -47 -27 -59 -15 -41 -31 31 -26 36 2 53 -2
65 -15 59 -66 74 -125 39 -157 -20 -18 -21 -17 -37 7 -8 14 -42 53 -74 87
-111 116 -293 182 -467 168 -114 -9 -148 -19 -131 -38 5 -7 9 -15 10 -20 0
-13 35 -67 43 -67 4 0 8 -6 8 -14 0 -7 12 -22 27 -32 15 -10 43 -34 62 -53 20
-18 51 -40 69 -48 18 -7 30 -18 27 -23 -3 -6 -1 -10 5 -10 15 0 121 -106 113
-114 -4 -3 1 -6 10 -6 10 0 17 -7 17 -15 0 -8 5 -15 10 -15 6 0 10 -6 10 -14
0 -8 9 -18 20 -21 11 -4 18 -10 15 -15 -3 -5 3 -11 14 -15 11 -3 22 -13 25
-21 3 -8 10 -12 16 -9 5 3 10 -1 10 -9 0 -9 9 -16 20 -16 11 0 20 -4 20 -10 0
-5 7 -10 15 -10 8 0 15 -4 15 -10 0 -5 9 -10 19 -10 11 0 21 -5 23 -12 3 -8
12 -9 36 0 29 10 32 9 32 -9 0 -10 -3 -20 -7 -20 -9 -2 -108 -9 -135 -10 -10
0 -18 -5 -18 -10 0 -6 -5 -7 -12 -3 -7 5 -9 2 -5 -9 4 -10 -1 -18 -13 -22 -10
-3 -21 -14 -24 -23 -5 -16 -26 -17 -221 -17 -118 0 -215 3 -215 8 0 4 6 7 14
7 8 0 23 8 34 18 27 23 13 59 -28 75 -16 6 -30 15 -30 20 0 5 -9 22 -21 38
-23 33 -54 37 -100 13 -33 -16 -51 -12 -31 8 7 7 12 27 12 44 0 28 -3 32 -21
29 -12 -3 -30 -12 -40 -21 -11 -10 -19 -13 -20 -8 0 5 -2 17 -4 27 -2 12 5 21
20 27 29 11 55 47 55 77 0 25 -18 26 -57 5 -22 -12 -23 -11 -23 16 0 24 5 31
28 35 25 5 62 50 62 76 0 14 -35 14 -61 1 -14 -8 -19 -7 -19 2 0 23 15 37 45
42 31 5 79 51 70 65 -5 9 -60 5 -76 -4 -11 -8 -11 -2 0 28 7 19 19 25 51 30
39 5 74 32 64 49 -3 5 -18 8 -35 8 -52 0 -29 40 33 55 46 11 68 45 29 45 -12
0 -21 4 -21 9 0 21 31 39 66 39 20 0 43 7 51 15 13 13 11 15 -12 21 -26 7 -27
8 -10 26 11 12 31 20 49 20 17 0 38 5 46 10 13 9 13 11 0 20 -13 9 -13 12 3
25 11 7 25 11 33 8 8 -3 26 -2 42 2 25 6 26 8 9 20 -17 12 -17 14 -1 23 10 5
35 7 57 4 34 -4 39 -3 34 11 -4 10 3 22 21 33 25 16 25 18 7 24 -11 4 -28 4
-37 -1 -10 -6 -19 -5 -23 1 -12 19 -33 10 -45 -19 -14 -36 -40 -48 -53 -26 -8
15 -10 15 -28 -1 -10 -9 -16 -21 -13 -25 3 -5 -7 -20 -22 -34 l-28 -26 -17 22
c-19 26 -32 13 -36 -36 -1 -16 -7 -31 -12 -33 -6 -2 -9 -7 -7 -11 3 -4 -1 -8
-9 -8 -8 0 -17 9 -21 19 -3 10 -8 18 -12 18 -15 0 -31 -39 -26 -63 3 -18 -3
-34 -19 -51 l-24 -26 -12 26 c-9 21 -14 24 -26 14 -17 -14 -20 -53 -6 -78 6
-12 5 -23 -4 -36 -13 -17 -15 -17 -36 3 l-23 21 -12 -21 c-12 -23 -8 -55 9
-76 5 -7 6 -25 3 -39 l-7 -27 -24 23 c-13 12 -28 19 -34 15 -19 -11 -13 -70 9
-90 21 -19 25 -41 11 -64 -7 -11 -13 -11 -32 3 -32 22 -49 20 -49 -7 0 -29 26
-66 54 -77 16 -6 22 -16 21 -32 -2 -23 -6 -24 -57 -12 -23 5 -28 3 -28 -13 0
-28 35 -70 64 -77 24 -6 36 -30 29 -54 -3 -6 -9 -9 -14 -6 -6 3 -23 8 -40 11
-21 3 -29 0 -29 -10 0 -25 39 -65 70 -72 40 -9 46 -22 12 -29 -54 -13 -79 -27
-77 -44 6 -58 115 -229 201 -315 144 -146 322 -247 529 -302 50 -13 88 -25 85
-26 -3 -1 -73 -2 -156 -3 l-152 -2 -16 51 c-29 93 -97 106 -274 55 -115 -33
-169 -33 -214 1 -16 11 -28 15 -28 10 0 -17 74 -97 115 -124 l40 -26 -55 -25
c-30 -13 -74 -27 -97 -31 -24 -4 -43 -10 -43 -14 0 -11 110 -31 166 -30 27 0
70 4 95 8 l47 8 11 -38 c8 -25 19 -40 39 -47 18 -7 278 -10 784 -9 822 2 782
-1 793 55 7 37 12 39 75 28 41 -7 87 -6 145 1 104 13 126 25 62 37 -62 11
-147 44 -147 56 0 4 12 16 27 25 15 10 46 38 70 64 51 54 58 83 12 49 -40 -30
-111 -29 -204 2 -94 32 -202 34 -241 4 -16 -11 -32 -36 -37 -55 -5 -19 -13
-38 -18 -44 -12 -12 -289 -14 -289 -3 0 5 7 8 15 8 30 0 213 64 287 100 42 21
105 57 140 81 81 55 225 198 271 270 49 78 89 166 85 186 -2 10 -20 22 -47 30
-24 7 -46 15 -49 17 -2 3 13 12 35 21 40 16 82 68 64 80 -6 3 -24 3 -40 0 -27
-5 -31 -2 -31 17 1 15 12 30 33 43 63 40 69 101 7 78 -29 -11 -30 -10 -30 17
0 19 6 31 18 34 21 7 44 43 48 74 3 25 -10 28 -48 8 -15 -8 -29 -12 -32 -8
-12 11 -5 52 11 72 20 23 26 59 14 79 -8 12 -13 12 -35 -2 -24 -16 -26 -16
-35 1 -6 11 -5 24 2 37 17 29 17 76 0 82 -7 3 -22 -2 -32 -11 -16 -15 -18 -14
-30 8 -9 16 -10 29 -3 42 13 24 13 34 0 57 -9 18 -11 18 -32 -2 l-23 -22 -17
25 c-9 14 -16 36 -16 50 0 13 -7 32 -17 41 -15 15 -17 15 -25 1 -13 -24 -48 2
-48 35 0 35 -25 57 -38 33 -8 -15 -11 -15 -36 1 -14 10 -26 26 -26 36 0 26
-30 40 -48 23 -15 -16 -29 -6 -51 34 -12 22 -41 31 -41 13 0 -6 -12 -6 -30 -1
-18 5 -32 5 -35 -1 -9 -13 3 -29 21 -29 9 0 14 -7 12 -17 -2 -15 5 -18 39 -18
44 -1 74 -17 54 -29 -22 -14 -10 -27 22 -25 37 3 77 -8 77 -22 0 -5 -7 -9 -16
-9 -14 0 -14 -3 -4 -15 7 -8 27 -15 44 -15 28 -1 66 -19 66 -32 0 -3 -9 -8
-20 -11 -11 -3 -20 -10 -20 -15 0 -13 49 -30 74 -26 11 1 25 -5 33 -14 18 -24
16 -32 -7 -32 -11 0 -20 -4 -20 -9 0 -15 42 -41 65 -41 24 0 45 -18 45 -37 0
-8 -12 -13 -30 -13 -19 0 -30 -5 -30 -14 0 -21 40 -46 72 -46 17 0 31 -7 38
-19 15 -29 13 -32 -24 -28 -19 2 -39 1 -44 -2 -17 -10 25 -52 66 -66 20 -7 38
-20 40 -29 3 -14 -3 -15 -37 -10 -38 6 -39 5 -34 -17 8 -33 23 -50 58 -64 21
-9 30 -20 31 -39 1 -28 -6 -32 -23 -15 -7 7 -23 13 -37 14 -21 3 -26 -1 -26
-18 0 -26 26 -60 58 -76 14 -8 22 -21 22 -37 l0 -26 -36 23 c-30 18 -38 19
-45 8 -10 -17 -4 -58 11 -73 22 -22 8 -27 -26 -7 -49 29 -77 27 -108 -10 -14
-17 -26 -34 -26 -39 0 -4 -14 -13 -30 -20 -38 -16 -50 -55 -24 -75 11 -8 25
-15 32 -15 7 0 11 -3 9 -8 -7 -9 -408 -8 -425 2 -7 4 -9 12 -6 18 4 7 2 8 -4
4 -7 -4 -12 -2 -12 4 0 6 -5 8 -12 4 -6 -4 -8 -3 -5 2 15 25 -30 44 -118 49
-69 4 -72 5 -70 25 2 28 10 33 25 15 14 -17 50 -21 50 -5 0 6 9 10 20 10 11 0
20 4 20 8 0 5 16 14 35 22 19 8 35 17 35 21 0 4 16 17 35 29 19 12 35 28 35
36 0 8 6 14 13 14 8 0 20 12 28 26 7 14 25 36 39 47 14 12 26 26 27 30 3 11
73 78 73 70 0 -4 8 2 19 13 26 27 55 50 63 49 3 0 16 12 28 28 12 15 28 27 36
27 8 0 17 7 20 15 4 8 12 15 20 15 13 0 18 12 15 33 0 4 3 7 8 7 14 0 64 91
55 100 -17 16 -120 29 -209 25 -107 -4 -195 -30 -283 -82 -61 -36 -163 -132
-174 -163 -12 -35 -21 4 -10 45 15 57 15 120 0 148 -6 12 -12 33 -13 46 0 14
-6 26 -13 29 -8 2 0 15 19 33 30 28 31 30 15 54 -16 24 -16 26 1 31 57 16 147
71 164 98 25 41 24 59 -7 95 -29 34 -88 49 -169 42 -18 -2 -18 -3 5 -16 14 -8
21 -14 16 -15 -17 0 36 -48 60 -54 29 -8 31 -36 4 -61 -22 -20 -148 -66 -154
-57 -7 12 -7 178 0 196 3 9 12 16 20 16 7 0 17 6 21 14 4 8 17 15 28 18 11 2
20 10 20 18 0 8 4 21 8 28 5 7 5 21 2 33 -5 16 -9 18 -21 8 -8 -6 -12 -20 -9
-30 5 -15 0 -18 -37 -16 -31 1 -43 6 -43 17 -1 8 -5 23 -11 33 -8 13 -13 14
-22 5z m59 -1140 c9 -16 6 -23 -13 -36 -12 -9 -23 -17 -23 -17 0 0 -11 8 -24
17 -23 16 -23 18 -8 42 19 28 51 25 68 -6z"/>
</g>
</svg>
